<mxfile host="app.diagrams.net" modified="2022-11-10T15:06:36.194Z" agent="5.0 (X11; Linux x86_64) AppleWebKit/537.36 (KHTML, like Gecko) Chrome/106.0.0.0 Safari/537.36 OPR/92.0.0.0" etag="KDLmbt2xRPPIYWF99JcG" version="20.5.3" type="github">
  <diagram id="FBCnK5mgxSPIJ93Y-hrB" name="Página-1">
    <mxGraphModel dx="2849" dy="804" grid="1" gridSize="10" guides="1" tooltips="1" connect="1" arrows="1" fold="1" page="1" pageScale="1" pageWidth="827" pageHeight="1169" math="0" shadow="0">
      <root>
        <mxCell id="0" />
        <mxCell id="1" parent="0" />
        <mxCell id="XjZveepG56oEctiiL1kZ-1" value="" style="rounded=1;whiteSpace=wrap;html=1;fillColor=#dae8fc;strokeColor=#6c8ebf;" parent="1" vertex="1">
          <mxGeometry x="119" y="120" width="190" height="220" as="geometry" />
        </mxCell>
        <mxCell id="XjZveepG56oEctiiL1kZ-2" value="STM32F4" style="rounded=1;whiteSpace=wrap;html=1;" parent="1" vertex="1">
          <mxGeometry x="159" y="130" width="110" height="20" as="geometry" />
        </mxCell>
        <mxCell id="QWPWfIlzJYTak63aH7c0-41" value="&lt;div style=&quot;&quot;&gt;&lt;br&gt;&lt;/div&gt;&lt;div style=&quot;&quot;&gt;&lt;br&gt;&lt;/div&gt;" style="rounded=1;whiteSpace=wrap;html=1;labelBackgroundColor=none;fontFamily=Verdana;fontColor=#FFFFFF;gradientColor=none;align=center;" parent="1" vertex="1">
          <mxGeometry x="265" y="520" width="220" height="130" as="geometry" />
        </mxCell>
        <mxCell id="QWPWfIlzJYTak63aH7c0-39" value="&lt;div style=&quot;&quot;&gt;&lt;br&gt;&lt;/div&gt;&lt;div style=&quot;&quot;&gt;&lt;br&gt;&lt;/div&gt;" style="rounded=1;whiteSpace=wrap;html=1;labelBackgroundColor=none;fontFamily=Verdana;fontColor=#FFFFFF;gradientColor=none;align=center;" parent="1" vertex="1">
          <mxGeometry x="470" y="100" width="180" height="110" as="geometry" />
        </mxCell>
        <mxCell id="QWPWfIlzJYTak63aH7c0-3" value="interface CAN&amp;nbsp;" style="rounded=1;whiteSpace=wrap;html=1;fillColor=#fff2cc;strokeColor=#d6b656;" parent="1" vertex="1">
          <mxGeometry x="164" y="320" width="100" height="20" as="geometry" />
        </mxCell>
        <mxCell id="QWPWfIlzJYTak63aH7c0-4" value="Display gráfico Nextion(opcional)" style="rounded=1;whiteSpace=wrap;html=1;fillColor=#f8cecc;strokeColor=#b85450;arcSize=50;" parent="1" vertex="1">
          <mxGeometry x="-30" y="190" width="100" height="80" as="geometry" />
        </mxCell>
        <mxCell id="QWPWfIlzJYTak63aH7c0-5" value="UART 1" style="rounded=1;whiteSpace=wrap;html=1;fillColor=#fff2cc;strokeColor=#d6b656;" parent="1" vertex="1">
          <mxGeometry x="260" y="210" width="50" height="40" as="geometry" />
        </mxCell>
        <mxCell id="QWPWfIlzJYTak63aH7c0-9" value="GPS Neo-6M" style="rounded=1;whiteSpace=wrap;html=1;fillColor=#a20025;fontColor=#ffffff;strokeColor=#6F0000;" parent="1" vertex="1">
          <mxGeometry x="360" y="210" width="50" height="40" as="geometry" />
        </mxCell>
        <mxCell id="QWPWfIlzJYTak63aH7c0-13" value="I2C 1" style="rounded=1;whiteSpace=wrap;html=1;fillColor=#fff2cc;strokeColor=#d6b656;" parent="1" vertex="1">
          <mxGeometry x="260" y="260" width="50" height="40" as="geometry" />
        </mxCell>
        <mxCell id="QWPWfIlzJYTak63aH7c0-14" value="Acelerômetro MPUxx50" style="rounded=1;whiteSpace=wrap;html=1;fillColor=#a20025;fontColor=#ffffff;strokeColor=#6F0000;" parent="1" vertex="1">
          <mxGeometry x="360" y="260" width="80" height="40" as="geometry" />
        </mxCell>
        <mxCell id="QWPWfIlzJYTak63aH7c0-16" value="UART 2" style="rounded=1;whiteSpace=wrap;html=1;fillColor=#fff2cc;strokeColor=#d6b656;" parent="1" vertex="1">
          <mxGeometry x="260" y="160" width="50" height="40" as="geometry" />
        </mxCell>
        <mxCell id="QWPWfIlzJYTak63aH7c0-36" value="" style="edgeStyle=orthogonalEdgeStyle;rounded=0;orthogonalLoop=1;jettySize=auto;html=1;fontFamily=Verdana;fontColor=#FFFFFF;fillColor=#000000;" parent="1" source="QWPWfIlzJYTak63aH7c0-17" target="QWPWfIlzJYTak63aH7c0-35" edge="1">
          <mxGeometry relative="1" as="geometry" />
        </mxCell>
        <mxCell id="QWPWfIlzJYTak63aH7c0-17" value="Device IoT&lt;br&gt;ESP32&amp;nbsp;" style="rounded=1;whiteSpace=wrap;html=1;fillColor=#60a917;strokeColor=#2D7600;fontColor=#ffffff;" parent="1" vertex="1">
          <mxGeometry x="360" y="160" width="70" height="40" as="geometry" />
        </mxCell>
        <mxCell id="QWPWfIlzJYTak63aH7c0-19" value="CAN transceiver&lt;br&gt;SN65HVD230&amp;nbsp;" style="rounded=1;whiteSpace=wrap;html=1;gradientColor=none;" parent="1" vertex="1">
          <mxGeometry x="174" y="375" width="80" height="60" as="geometry" />
        </mxCell>
        <mxCell id="QWPWfIlzJYTak63aH7c0-21" value="" style="shape=flexArrow;endArrow=classic;startArrow=classic;html=1;rounded=0;fillColor=#000000;width=10.952380952380953;endSize=8.061904761904762;" parent="1" edge="1">
          <mxGeometry width="100" height="100" relative="1" as="geometry">
            <mxPoint x="254" y="404.76" as="sourcePoint" />
            <mxPoint x="490" y="405" as="targetPoint" />
          </mxGeometry>
        </mxCell>
        <mxCell id="QWPWfIlzJYTak63aH7c0-23" value="&lt;p style=&quot;line-height: 0;&quot;&gt;&lt;br&gt;&lt;/p&gt;" style="edgeLabel;html=1;align=center;verticalAlign=middle;resizable=0;points=[];fontColor=#FFFFFF;labelBackgroundColor=#000000;fontFamily=Verdana;" parent="QWPWfIlzJYTak63aH7c0-21" vertex="1" connectable="0">
          <mxGeometry x="0.2295" y="1" relative="1" as="geometry">
            <mxPoint x="-29" y="1" as="offset" />
          </mxGeometry>
        </mxCell>
        <mxCell id="QWPWfIlzJYTak63aH7c0-25" value="Dispositivo&lt;br&gt;CAN 1&lt;br&gt;STM32F1&lt;br&gt;BluePill" style="rounded=1;whiteSpace=wrap;html=1;fillColor=#dae8fc;strokeColor=#6c8ebf;" parent="1" vertex="1">
          <mxGeometry x="280" y="520" width="80" height="65" as="geometry" />
        </mxCell>
        <mxCell id="QWPWfIlzJYTak63aH7c0-27" value="" style="shape=flexArrow;endArrow=classic;startArrow=classic;html=1;rounded=0;fontFamily=Verdana;fontColor=#FFFFFF;fillColor=#000000;width=3.333333333333333;endSize=4.271428571428571;endWidth=9.841269841269842;startWidth=9.841269841269842;startSize=5.2523809523809515;entryX=0;entryY=0.641;entryDx=0;entryDy=0;entryPerimeter=0;exitX=0.5;exitY=0;exitDx=0;exitDy=0;" parent="1" source="QWPWfIlzJYTak63aH7c0-45" target="QWPWfIlzJYTak63aH7c0-42" edge="1">
          <mxGeometry width="100" height="100" relative="1" as="geometry">
            <mxPoint x="320" y="470" as="sourcePoint" />
            <mxPoint x="320" y="400" as="targetPoint" />
          </mxGeometry>
        </mxCell>
        <mxCell id="QWPWfIlzJYTak63aH7c0-29" value="Dispositivo&lt;br&gt;CAN 2 STM32F1&lt;br&gt;BlackBoard" style="rounded=1;whiteSpace=wrap;html=1;fillColor=#dae8fc;strokeColor=#6c8ebf;" parent="1" vertex="1">
          <mxGeometry x="380" y="520" width="80" height="65" as="geometry" />
        </mxCell>
        <mxCell id="QWPWfIlzJYTak63aH7c0-30" value="" style="shape=flexArrow;endArrow=classic;startArrow=classic;html=1;rounded=0;fontFamily=Verdana;fontColor=#FFFFFF;fillColor=#000000;width=3.333333333333333;endSize=4.271428571428571;endWidth=9.841269841269842;startWidth=9.841269841269842;startSize=5.2523809523809515;exitX=0.5;exitY=0;exitDx=0;exitDy=0;" parent="1" source="QWPWfIlzJYTak63aH7c0-46" edge="1">
          <mxGeometry width="100" height="100" relative="1" as="geometry">
            <mxPoint x="420" y="469.9999999999999" as="sourcePoint" />
            <mxPoint x="420" y="410" as="targetPoint" />
          </mxGeometry>
        </mxCell>
        <mxCell id="QWPWfIlzJYTak63aH7c0-34" value="Dispositivos para gerar comandos e dados para simular uma rede CAN automotiva" style="text;html=1;align=center;verticalAlign=middle;whiteSpace=wrap;rounded=0;labelBackgroundColor=none;fontFamily=Verdana;" parent="1" vertex="1">
          <mxGeometry x="285" y="585" width="180" height="65" as="geometry" />
        </mxCell>
        <mxCell id="QWPWfIlzJYTak63aH7c0-38" value="" style="edgeStyle=orthogonalEdgeStyle;rounded=0;orthogonalLoop=1;jettySize=auto;html=1;fontFamily=Verdana;fontColor=#FFFFFF;fillColor=#000000;" parent="1" source="QWPWfIlzJYTak63aH7c0-35" target="QWPWfIlzJYTak63aH7c0-37" edge="1">
          <mxGeometry relative="1" as="geometry" />
        </mxCell>
        <mxCell id="QWPWfIlzJYTak63aH7c0-35" value="MQTT" style="rounded=1;whiteSpace=wrap;html=1;fillColor=#60a917;strokeColor=#2D7600;fontColor=#ffffff;" parent="1" vertex="1">
          <mxGeometry x="470" y="160" width="70" height="40" as="geometry" />
        </mxCell>
        <mxCell id="QWPWfIlzJYTak63aH7c0-37" value="Supervisório" style="rounded=1;whiteSpace=wrap;html=1;fillColor=#60a917;strokeColor=#2D7600;fontColor=#ffffff;" parent="1" vertex="1">
          <mxGeometry x="580" y="160" width="70" height="40" as="geometry" />
        </mxCell>
        <mxCell id="QWPWfIlzJYTak63aH7c0-40" value="Para as próximas etapas do projeto" style="text;html=1;strokeColor=none;fillColor=none;align=center;verticalAlign=middle;whiteSpace=wrap;rounded=0;labelBackgroundColor=none;fontFamily=Verdana;fontColor=#000000;" parent="1" vertex="1">
          <mxGeometry x="500" y="110" width="120" height="30" as="geometry" />
        </mxCell>
        <mxCell id="QWPWfIlzJYTak63aH7c0-42" value="&lt;font color=&quot;#ffffff&quot;&gt;Barramento CAN BUS&lt;/font&gt;" style="text;html=1;strokeColor=none;fillColor=none;align=center;verticalAlign=middle;whiteSpace=wrap;rounded=0;labelBackgroundColor=none;fontFamily=Verdana;fontSize=8;fontColor=#000000;" parent="1" vertex="1">
          <mxGeometry x="320" y="390" width="110" height="30" as="geometry" />
        </mxCell>
        <mxCell id="QWPWfIlzJYTak63aH7c0-45" value="CAN transceiver&lt;br&gt;SN65HVD230&amp;nbsp;" style="rounded=1;whiteSpace=wrap;html=1;gradientColor=none;" parent="1" vertex="1">
          <mxGeometry x="280" y="450" width="80" height="50" as="geometry" />
        </mxCell>
        <mxCell id="QWPWfIlzJYTak63aH7c0-46" value="CAN transceiver&lt;br&gt;SN65HVD230&amp;nbsp;" style="rounded=1;whiteSpace=wrap;html=1;gradientColor=none;" parent="1" vertex="1">
          <mxGeometry x="380" y="450" width="80" height="50" as="geometry" />
        </mxCell>
        <mxCell id="QWPWfIlzJYTak63aH7c0-48" value="" style="endArrow=classic;startArrow=classic;html=1;rounded=0;fontFamily=Verdana;fontSize=8;fontColor=#FFFFFF;fillColor=#000000;exitX=0.5;exitY=0;exitDx=0;exitDy=0;entryX=0.5;entryY=1;entryDx=0;entryDy=0;" parent="1" source="QWPWfIlzJYTak63aH7c0-25" target="QWPWfIlzJYTak63aH7c0-45" edge="1">
          <mxGeometry width="50" height="50" relative="1" as="geometry">
            <mxPoint x="360" y="470" as="sourcePoint" />
            <mxPoint x="410" y="420" as="targetPoint" />
          </mxGeometry>
        </mxCell>
        <mxCell id="QWPWfIlzJYTak63aH7c0-49" value="" style="endArrow=classic;startArrow=classic;html=1;rounded=0;fontFamily=Verdana;fontSize=8;fontColor=#FFFFFF;fillColor=#000000;exitX=0.5;exitY=0;exitDx=0;exitDy=0;entryX=0.5;entryY=1;entryDx=0;entryDy=0;" parent="1" source="QWPWfIlzJYTak63aH7c0-29" target="QWPWfIlzJYTak63aH7c0-46" edge="1">
          <mxGeometry width="50" height="50" relative="1" as="geometry">
            <mxPoint x="330" y="544.9999999999999" as="sourcePoint" />
            <mxPoint x="330" y="520.0000000000001" as="targetPoint" />
          </mxGeometry>
        </mxCell>
        <mxCell id="QWPWfIlzJYTak63aH7c0-50" value="" style="endArrow=classic;startArrow=classic;html=1;rounded=0;fontFamily=Verdana;fontSize=8;fontColor=#FFFFFF;fillColor=#000000;entryX=0.5;entryY=1;entryDx=0;entryDy=0;exitX=0.5;exitY=0;exitDx=0;exitDy=0;" parent="1" source="QWPWfIlzJYTak63aH7c0-19" target="QWPWfIlzJYTak63aH7c0-3" edge="1">
          <mxGeometry width="50" height="50" relative="1" as="geometry">
            <mxPoint x="360" y="470" as="sourcePoint" />
            <mxPoint x="410" y="420" as="targetPoint" />
          </mxGeometry>
        </mxCell>
        <mxCell id="QWPWfIlzJYTak63aH7c0-52" value="" style="endArrow=classic;startArrow=classic;html=1;rounded=0;strokeColor=default;fontFamily=Verdana;fontSize=8;fontColor=#FFFFFF;fillColor=#000000;entryX=0;entryY=0.5;entryDx=0;entryDy=0;exitX=1;exitY=0.5;exitDx=0;exitDy=0;" parent="1" source="QWPWfIlzJYTak63aH7c0-13" target="QWPWfIlzJYTak63aH7c0-14" edge="1">
          <mxGeometry width="50" height="50" relative="1" as="geometry">
            <mxPoint x="360" y="310" as="sourcePoint" />
            <mxPoint x="560" y="290" as="targetPoint" />
          </mxGeometry>
        </mxCell>
        <mxCell id="QWPWfIlzJYTak63aH7c0-53" value="" style="endArrow=classic;startArrow=classic;html=1;rounded=0;strokeColor=default;fontFamily=Verdana;fontSize=8;fontColor=#FFFFFF;fillColor=#000000;entryX=0;entryY=0.5;entryDx=0;entryDy=0;exitX=1;exitY=0.5;exitDx=0;exitDy=0;" parent="1" edge="1">
          <mxGeometry width="50" height="50" relative="1" as="geometry">
            <mxPoint x="310" y="229.76" as="sourcePoint" />
            <mxPoint x="360" y="229.76" as="targetPoint" />
          </mxGeometry>
        </mxCell>
        <mxCell id="QWPWfIlzJYTak63aH7c0-54" value="" style="endArrow=classic;startArrow=classic;html=1;rounded=0;strokeColor=default;fontFamily=Verdana;fontSize=8;fontColor=#FFFFFF;fillColor=#000000;entryX=0;entryY=0.5;entryDx=0;entryDy=0;exitX=1;exitY=0.5;exitDx=0;exitDy=0;" parent="1" edge="1">
          <mxGeometry width="50" height="50" relative="1" as="geometry">
            <mxPoint x="310" y="179.76" as="sourcePoint" />
            <mxPoint x="360" y="179.76" as="targetPoint" />
          </mxGeometry>
        </mxCell>
        <mxCell id="XjZveepG56oEctiiL1kZ-4" value="" style="edgeStyle=orthogonalEdgeStyle;rounded=0;orthogonalLoop=1;jettySize=auto;html=1;" parent="1" source="XjZveepG56oEctiiL1kZ-3" target="QWPWfIlzJYTak63aH7c0-4" edge="1">
          <mxGeometry relative="1" as="geometry" />
        </mxCell>
        <mxCell id="XjZveepG56oEctiiL1kZ-3" value="UART 3" style="rounded=1;whiteSpace=wrap;html=1;fillColor=#fff2cc;strokeColor=#d6b656;" parent="1" vertex="1">
          <mxGeometry x="119" y="210" width="50" height="40" as="geometry" />
        </mxCell>
      </root>
    </mxGraphModel>
  </diagram>
</mxfile>
